# xmcd
#
# Track frame offsets: 
#        150
#        13840
#        25242
#        34422
#        45755
#        55527
#        68047
#        78645
#        88837
#        98670
#        111330
#        124137
#        133712
#        144772
#        157335
#        168022
#        177387
#        187347
#        198547
#        208860
#        220102
#        232820
#        245745
#        258650
#        269012
#        280625
#
# Disc length: 3901 seconds
#
# Revision: 1
# Processed by: cddbd v1.5.2PL0 Copyright (c) Steve Scherf et al.
# Submitted via: ExactAudioCopy v1.3
#
DISCID=810f3b1a
DTITLE=Roy Orbison - Pretty Woman
DYEAR=1900
DGENRE=
TTITLE0=Oh, Pretty Woman
TTITLE1=Only The Lonely
TTITLE2=I Give Up
TTITLE3=Working For The Man
TTITLE4=Uptown
TTITLE5=Candy Man
TTITLE6=Pretty One
TTITLE7=Running Scared
TTITLE8=Devil Doll
TTITLE9=Blue Angel
TTITLE10=It's Over
TTITLE11=You're My Baby
TTITLE12=The Cause Of It All
TTITLE13=Leah
TTITLE14=A True Love Goodbye
TTITLE15=Rock House
TTITLE16=Go Go Go
TTITLE17=The Crowd
TTITLE18=I Was A Fool
TTITLE19=Blue Bayou
TTITLE20=Crying
TTITLE21=I'm Hurtin'
TTITLE22=In Dreams
TTITLE23=Lana
TTITLE24=Dream Baby, How Long Must I Dream?
TTITLE25=Tryin' To Get To You
EXTD=
EXTT0=
EXTT1=
EXTT2=
EXTT3=
EXTT4=
EXTT5=
EXTT6=
EXTT7=
EXTT8=
EXTT9=
EXTT10=
EXTT11=
EXTT12=
EXTT13=
EXTT14=
EXTT15=
EXTT16=
EXTT17=
EXTT18=
EXTT19=
EXTT20=
EXTT21=
EXTT22=
EXTT23=
EXTT24=
EXTT25=
PLAYORDER=
